{
  "accessors": [
    {
      "bufferView": 2,
      "componentType": 5126,
      "count": 7776,
      "max": [
        1026.8555908203125,
        1426.8555908203125,
        408.702392578125
      ],
      "min": [
        -226.85565185546875,
        -300.0,
        0.0
      ],
      "type": "VEC3"
    },
    {
      "bufferView": 2,
      "byteOffset": 93312,
      "componentType": 5126,
      "count": 7776,
      "max": [
        1.0,
        1.0,
        1.0
      ],
      "min": [
        -1.0,
        -1.0,
        -1.0
      ],
      "type": "VEC3"
    },
    {
      "bufferView": 3,
      "componentType": 5126,
      "count": 7776,
      "max": [
        1.0,
        1.0,
        1.0,
        1.0
      ],
      "min": [
        -1.0,
        -1.0,
        -1.0,
        1.0
      ],
      "type": "VEC4"
    },
    {
      "bufferView": 1,
      "componentType": 5126,
      "count": 7776,
      "max": [
        0.9880239963531494,
        0.9900000095367432
      ],
      "min": [
        0.009999999776482582,
        0.009999999776482582
      ],
      "type": "VEC2"
    },
    {
      "bufferView": 0,
      "componentType": 5125,
      "count": 10692,
      "type": "SCALAR"
    },
    {
      "bufferView": 2,
      "byteOffset": 186624,
      "componentType": 5126,
      "count": 48,
      "max": [
        1000.0,
        1200.0,
        200.0
      ],
      "min": [
        0.0,
        -200.0,
        0.0
      ],
      "type": "VEC3"
    },
    {
      "bufferView": 2,
      "byteOffset": 187200,
      "componentType": 5126,
      "count": 48,
      "max": [
        1.0,
        -0.0,
        0.0
      ],
      "min": [
        0.0,
        -1.0,
        0.0
      ],
      "type": "VEC3"
    },
    {
      "bufferView": 3,
      "byteOffset": 124416,
      "componentType": 5126,
      "count": 48,
      "max": [
        1.0,
        1.0,
        0.0,
        1.0
      ],
      "min": [
        0.0,
        0.0,
        0.0,
        1.0
      ],
      "type": "VEC4"
    },
    {
      "bufferView": 1,
      "byteOffset": 62208,
      "componentType": 5126,
      "count": 48,
      "max": [
        0.9980080127716064,
        0.9980080127716064
      ],
      "min": [
        0.0019920000340789557,
        0.0019920000340789557
      ],
      "type": "VEC2"
    },
    {
      "bufferView": 0,
      "byteOffset": 42768,
      "componentType": 5125,
      "count": 72,
      "type": "SCALAR"
    },
    {
      "bufferView": 2,
      "byteOffset": 187776,
      "componentType": 5126,
      "count": 2268,
      "max": [
        842.3482055664063,
        1175.3125,
        122.00395202636719
      ],
      "min": [
        -6.019615173339844,
        -168.76834106445313,
        -109.15687561035156
      ],
      "type": "VEC3"
    },
    {
      "bufferView": 2,
      "byteOffset": 214992,
      "componentType": 5126,
      "count": 2268,
      "max": [
        0.9999998807907104,
        0.9999998807907104,
        1.0
      ],
      "min": [
        -0.9999998807907104,
        -0.9999998807907104,
        -1.0
      ],
      "type": "VEC3"
    },
    {
      "bufferView": 3,
      "byteOffset": 125184,
      "componentType": 5126,
      "count": 2268,
      "max": [
        1.0,
        1.0,
        0.999908447265625,
        1.0
      ],
      "min": [
        -1.0,
        -1.0,
        -0.9998351335525513,
        1.0
      ],
      "type": "VEC4"
    },
    {
      "bufferView": 1,
      "byteOffset": 62592,
      "componentType": 5126,
      "count": 2268,
      "max": [
        0.9930930137634277,
        0.8662919998168945
      ],
      "min": [
        0.7218719720840454,
        0.6561089754104614
      ],
      "type": "VEC2"
    },
    {
      "bufferView": 0,
      "byteOffset": 43056,
      "componentType": 5125,
      "count": 8064,
      "type": "SCALAR"
    },
    {
      "bufferView": 2,
      "byteOffset": 242208,
      "componentType": 5126,
      "count": 432,
      "max": [
        1000.0,
        1208.021484375,
        302.10107421875
      ],
      "min": [
        -6.530691146850586,
        30.473173141479492,
        200.0
      ],
      "type": "VEC3"
    },
    {
      "bufferView": 2,
      "byteOffset": 247392,
      "componentType": 5126,
      "count": 432,
      "max": [
        1.0,
        0.9971793293952942,
        0.9991171360015869
      ],
      "min": [
        -0.9977573752403259,
        -1.0,
        -0.9991171360015869
      ],
      "type": "VEC3"
    },
    {
      "bufferView": 3,
      "byteOffset": 161472,
      "componentType": 5126,
      "count": 432,
      "max": [
        1.0,
        1.0,
        0.9971793293952942,
        1.0
      ],
      "min": [
        -1.0,
        -1.0,
        -0.9977573752403259,
        -1.0
      ],
      "type": "VEC4"
    },
    {
      "bufferView": 1,
      "byteOffset": 80736,
      "componentType": 5126,
      "count": 432,
      "max": [
        0.9978410005569458,
        0.7127619981765747
      ],
      "min": [
        0.0021589999087154865,
        0.26330000162124634
      ],
      "type": "VEC2"
    },
    {
      "bufferView": 0,
      "byteOffset": 75312,
      "componentType": 5125,
      "count": 1050,
      "type": "SCALAR"
    },
    {
      "bufferView": 2,
      "byteOffset": 252576,
      "componentType": 5126,
      "count": 1648,
      "max": [
        1226.888671875,
        1300.0,
        36.895904541015625
      ],
      "min": [
        0.0,
        -232.30081176757813,
        -99.99992370605469
      ],
      "type": "VEC3"
    },
    {
      "bufferView": 2,
      "byteOffset": 272352,
      "componentType": 5126,
      "count": 1648,
      "max": [
        1.0,
        1.0,
        1.0
      ],
      "min": [
        -1.0,
        -1.0,
        -0.009967004880309105
      ],
      "type": "VEC3"
    },
    {
      "bufferView": 3,
      "byteOffset": 168384,
      "componentType": 5126,
      "count": 1648,
      "max": [
        1.0,
        0.9998327493667603,
        1.0,
        1.0
      ],
      "min": [
        -0.3697991669178009,
        -0.9999090433120728,
        -1.0,
        1.0
      ],
      "type": "VEC4"
    },
    {
      "bufferView": 1,
      "byteOffset": 84192,
      "componentType": 5126,
      "count": 1648,
      "max": [
        0.9980080127716064,
        0.9980080127716064
      ],
      "min": [
        0.0019920000340789557,
        0.0019920000340789557
      ],
      "type": "VEC2"
    },
    {
      "bufferView": 0,
      "byteOffset": 79512,
      "componentType": 5125,
      "count": 6288,
      "type": "SCALAR"
    },
    {
      "bufferView": 2,
      "byteOffset": 292128,
      "componentType": 5126,
      "count": 206,
      "max": [
        816.0669555664063,
        958.008056640625,
        3.9000000953674316
      ],
      "min": [
        0.0,
        240.58056640625,
        -100.0
      ],
      "type": "VEC3"
    },
    {
      "bufferView": 2,
      "byteOffset": 294600,
      "componentType": 5126,
      "count": 206,
      "max": [
        1.0,
        0.7071093320846558,
        1.0
      ],
      "min": [
        -0.7071073651313782,
        -0.7071093320846558,
        -0.7071078419685364
      ],
      "type": "VEC3"
    },
    {
      "bufferView": 3,
      "byteOffset": 194752,
      "componentType": 5126,
      "count": 206,
      "max": [
        0.0,
        1.0,
        0.0,
        1.0
      ],
      "min": [
        -1.0,
        0.0,
        0.0,
        1.0
      ],
      "type": "VEC4"
    },
    {
      "bufferView": 1,
      "byteOffset": 97376,
      "componentType": 5126,
      "count": 206,
      "max": [
        0.7016459703445435,
        0.9980430006980896
      ],
      "min": [
        0.2065429985523224,
        0.3293040096759796
      ],
      "type": "VEC2"
    },
    {
      "bufferView": 0,
      "byteOffset": 104664,
      "componentType": 5125,
      "count": 324,
      "type": "SCALAR"
    },
    {
      "bufferView": 2,
      "byteOffset": 297072,
      "componentType": 5126,
      "count": 2109,
      "max": [
        579.5198974609375,
        1285.6839599609375,
        471.1533203125
      ],
      "min": [
        -85.6839599609375,
        220.4801025390625,
        0.0
      ],
      "type": "VEC3"
    },
    {
      "bufferView": 2,
      "byteOffset": 322380,
      "componentType": 5126,
      "count": 2109,
      "max": [
        1.0,
        1.0,
        1.0
      ],
      "min": [
        -1.0,
        -1.0,
        -1.0
      ],
      "type": "VEC3"
    },
    {
      "bufferView": 3,
      "byteOffset": 198048,
      "componentType": 5126,
      "count": 2109,
      "max": [
        1.0,
        1.0,
        1.0,
        1.0
      ],
      "min": [
        -1.0,
        -1.0,
        -1.0,
        1.0
      ],
      "type": "VEC4"
    },
    {
      "bufferView": 1,
      "byteOffset": 99024,
      "componentType": 5126,
      "count": 2109,
      "max": [
        0.9831820130348206,
        0.9900029897689819
      ],
      "min": [
        0.04098299890756607,
        0.012209000065922737
      ],
      "type": "VEC2"
    },
    {
      "bufferView": 0,
      "byteOffset": 105960,
      "componentType": 5125,
      "count": 3510,
      "type": "SCALAR"
    },
    {
      "bufferView": 2,
      "byteOffset": 347688,
      "componentType": 5126,
      "count": 1254,
      "max": [
        138.92149353027344,
        776.1345825195313,
        426.1414489746094
      ],
      "min": [
        -55.17219161987305,
        423.86541748046875,
        -9.100000170292333e-05
      ],
      "type": "VEC3"
    },
    {
      "bufferView": 2,
      "byteOffset": 362736,
      "componentType": 5126,
      "count": 1254,
      "max": [
        1.0,
        1.0,
        1.0
      ],
      "min": [
        -1.0,
        -1.0,
        -1.0
      ],
      "type": "VEC3"
    },
    {
      "bufferView": 3,
      "byteOffset": 231792,
      "componentType": 5126,
      "count": 1254,
      "max": [
        1.0,
        1.0,
        1.0,
        1.0
      ],
      "min": [
        -1.0,
        -1.0,
        -1.0,
        -1.0
      ],
      "type": "VEC4"
    },
    {
      "bufferView": 1,
      "byteOffset": 115896,
      "componentType": 5126,
      "count": 1254,
      "max": [
        0.9900000095367432,
        0.9900000095367432
      ],
      "min": [
        0.009999999776482582,
        0.012024999596178532
      ],
      "type": "VEC2"
    },
    {
      "bufferView": 0,
      "byteOffset": 120000,
      "componentType": 5125,
      "count": 3396,
      "type": "SCALAR"
    },
    {
      "bufferView": 2,
      "byteOffset": 377784,
      "componentType": 5126,
      "count": 4800,
      "max": [
        1203.568115234375,
        1221.820556640625,
        358.33770751953125
      ],
      "min": [
        -22.2568359375,
        -13.5189208984375,
        -7.9881591796875
      ],
      "type": "VEC3"
    },
    {
      "bufferView": 2,
      "byteOffset": 435384,
      "componentType": 5126,
      "count": 4800,
      "max": [
        0.9410978555679321,
        0.9110617637634277,
        0.9424936175346375
      ],
      "min": [
        -0.9410982131958008,
        -0.9110628962516785,
        -0.9424932599067688
      ],
      "type": "VEC3"
    },
    {
      "bufferView": 3,
      "byteOffset": 251856,
      "componentType": 5126,
      "count": 4800,
      "max": [
        1.0,
        0.9999457597732544,
        0.9986370801925659,
        1.0
      ],
      "min": [
        -1.0,
        -0.9999457597732544,
        -0.9986367225646973,
        1.0
      ],
      "type": "VEC4"
    },
    {
      "bufferView": 1,
      "byteOffset": 125928,
      "componentType": 5126,
      "count": 4800,
      "max": [
        0.9900000095367432,
        0.9900000095367432
      ],
      "min": [
        0.009999999776482582,
        0.08919200301170349
      ],
      "type": "VEC2"
    },
    {
      "bufferView": 0,
      "byteOffset": 133584,
      "componentType": 5125,
      "count": 7200,
      "type": "SCALAR"
    }
  ],
  "asset": {
    "extras": {
      "author": "Aleksandr (https://sketchfab.com/xa3apg)",
      "license": "CC-BY-4.0 (http://creativecommons.org/licenses/by/4.0/)",
      "source": "https://sketchfab.com/3d-models/stylized-dungeon-53b49aa25d094bfbaf47b3650e90e8dc",
      "title": "Stylized Dungeon"
    },
    "generator": "Sketchfab-12.65.0",
    "version": "2.0"
  },
  "bufferViews": [
    {
      "buffer": 0,
      "byteLength": 162384,
      "name": "floatBufferViews",
      "target": 34963
    },
    {
      "buffer": 0,
      "byteLength": 164328,
      "byteOffset": 162384,
      "byteStride": 8,
      "name": "floatBufferViews",
      "target": 34962
    },
    {
      "buffer": 0,
      "byteLength": 492984,
      "byteOffset": 326712,
      "byteStride": 12,
      "name": "floatBufferViews",
      "target": 34962
    },
    {
      "buffer": 0,
      "byteLength": 328656,
      "byteOffset": 819696,
      "byteStride": 16,
      "name": "floatBufferViews",
      "target": 34962
    }
  ],
  "buffers": [
    {
      "byteLength": 1148352,
      "uri": "scene.bin"
    }
  ],
  "extensionsRequired": [
    "KHR_materials_pbrSpecularGlossiness"
  ],
  "extensionsUsed": [
    "KHR_materials_pbrSpecularGlossiness"
  ],
  "images": [
    {
      "uri": "textures/blinn1SG_diffuse.png"
    },
    {
      "uri": "textures/blinn1SG_normal.png"
    },
    {
      "uri": "textures/blinn2SG_diffuse.png"
    },
    {
      "uri": "textures/blinn2SG_normal.png"
    },
    {
      "uri": "textures/lambert2SG_diffuse.png"
    },
    {
      "uri": "textures/lambert2SG_normal.png"
    },
    {
      "uri": "textures/lambert3SG_diffuse.png"
    },
    {
      "uri": "textures/lambert3SG_normal.png"
    },
    {
      "uri": "textures/lambert4SG_diffuse.png"
    },
    {
      "uri": "textures/lambert4SG_normal.png"
    },
    {
      "uri": "textures/phong3SG_diffuse.png"
    },
    {
      "uri": "textures/phong3SG_normal.png"
    },
    {
      "uri": "textures/phong4SG_diffuse.png"
    },
    {
      "uri": "textures/phong4SG_normal.png"
    },
    {
      "uri": "textures/phong5SG_diffuse.png"
    },
    {
      "uri": "textures/phong5SG_normal.png"
    },
    {
      "uri": "textures/sceneCombined_OBJphong4SG_diffuse.png"
    }
  ],
  "materials": [
    {
      "doubleSided": true,
      "extensions": {
        "KHR_materials_pbrSpecularGlossiness": {
          "diffuseFactor": [
            1.0,
            1.0,
            1.0,
            1.0
          ],
          "diffuseTexture": {
            "index": 0
          },
          "glossinessFactor": 0.0,
          "specularFactor": [
            0.0,
            0.0,
            0.0
          ]
        }
      },
      "name": "blinn1SG",
      "normalTexture": {
        "index": 1
      }
    },
    {
      "doubleSided": true,
      "extensions": {
        "KHR_materials_pbrSpecularGlossiness": {
          "diffuseFactor": [
            1.0,
            1.0,
            1.0,
            1.0
          ],
          "diffuseTexture": {
            "index": 2
          },
          "glossinessFactor": 0.0,
          "specularFactor": [
            0.0,
            0.0,
            0.0
          ]
        }
      },
      "name": "blinn2SG",
      "normalTexture": {
        "index": 3
      }
    },
    {
      "doubleSided": true,
      "extensions": {
        "KHR_materials_pbrSpecularGlossiness": {
          "diffuseFactor": [
            1.0,
            1.0,
            1.0,
            1.0
          ],
          "diffuseTexture": {
            "index": 4
          },
          "glossinessFactor": 0.0,
          "specularFactor": [
            0.0,
            0.0,
            0.0
          ]
        }
      },
      "name": "lambert2SG",
      "normalTexture": {
        "index": 5
      }
    },
    {
      "doubleSided": true,
      "extensions": {
        "KHR_materials_pbrSpecularGlossiness": {
          "diffuseFactor": [
            1.0,
            1.0,
            1.0,
            1.0
          ],
          "diffuseTexture": {
            "index": 6
          },
          "glossinessFactor": 0.0,
          "specularFactor": [
            0.0,
            0.0,
            0.0
          ]
        }
      },
      "name": "lambert3SG",
      "normalTexture": {
        "index": 7
      }
    },
    {
      "alphaMode": "BLEND",
      "doubleSided": true,
      "extensions": {
        "KHR_materials_pbrSpecularGlossiness": {
          "diffuseFactor": [
            1.0,
            1.0,
            1.0,
            1.0
          ],
          "diffuseTexture": {
            "index": 8
          },
          "glossinessFactor": 0.0,
          "specularFactor": [
            0.0,
            0.0,
            0.0
          ]
        }
      },
      "name": "lambert4SG",
      "normalTexture": {
        "index": 9
      }
    },
    {
      "doubleSided": true,
      "extensions": {
        "KHR_materials_pbrSpecularGlossiness": {
          "diffuseFactor": [
            1.0,
            1.0,
            1.0,
            1.0
          ],
          "diffuseTexture": {
            "index": 10
          },
          "glossinessFactor": 0.0,
          "specularFactor": [
            0.0,
            0.0,
            0.0
          ]
        }
      },
      "name": "phong3SG",
      "normalTexture": {
        "index": 11
      }
    },
    {
      "doubleSided": true,
      "extensions": {
        "KHR_materials_pbrSpecularGlossiness": {
          "diffuseFactor": [
            1.0,
            1.0,
            1.0,
            1.0
          ],
          "diffuseTexture": {
            "index": 12
          },
          "glossinessFactor": 0.0,
          "specularFactor": [
            0.0,
            0.0,
            0.0
          ]
        }
      },
      "name": "phong4SG",
      "normalTexture": {
        "index": 13
      }
    },
    {
      "doubleSided": true,
      "extensions": {
        "KHR_materials_pbrSpecularGlossiness": {
          "diffuseFactor": [
            1.0,
            1.0,
            1.0,
            1.0
          ],
          "diffuseTexture": {
            "index": 14
          },
          "glossinessFactor": 0.0,
          "specularFactor": [
            0.0,
            0.0,
            0.0
          ]
        }
      },
      "name": "phong5SG",
      "normalTexture": {
        "index": 15
      }
    },
    {
      "doubleSided": true,
      "extensions": {
        "KHR_materials_pbrSpecularGlossiness": {
          "diffuseFactor": [
            1.0,
            1.0,
            1.0,
            1.0
          ],
          "diffuseTexture": {
            "index": 16
          },
          "glossinessFactor": 0.0,
          "specularFactor": [
            0.0,
            0.0,
            0.0
          ]
        }
      },
      "name": "sceneCombined_OBJphong4SG",
      "normalTexture": {
        "index": 9
      }
    }
  ],
  "meshes": [
    {
      "name": "Object_0",
      "primitives": [
        {
          "attributes": {
            "NORMAL": 1,
            "POSITION": 0,
            "TANGENT": 2,
            "TEXCOORD_0": 3
          },
          "indices": 4,
          "material": 2,
          "mode": 4
        }
      ]
    },
    {
      "name": "Object_1",
      "primitives": [
        {
          "attributes": {
            "NORMAL": 6,
            "POSITION": 5,
            "TANGENT": 7,
            "TEXCOORD_0": 8
          },
          "indices": 9,
          "material": 3,
          "mode": 4
        }
      ]
    },
    {
      "name": "Object_2",
      "primitives": [
        {
          "attributes": {
            "NORMAL": 11,
            "POSITION": 10,
            "TANGENT": 12,
            "TEXCOORD_0": 13
          },
          "indices": 14,
          "material": 8,
          "mode": 4
        }
      ]
    },
    {
      "name": "Object_3",
      "primitives": [
        {
          "attributes": {
            "NORMAL": 16,
            "POSITION": 15,
            "TANGENT": 17,
            "TEXCOORD_0": 18
          },
          "indices": 19,
          "material": 0,
          "mode": 4
        }
      ]
    },
    {
      "name": "Object_4",
      "primitives": [
        {
          "attributes": {
            "NORMAL": 21,
            "POSITION": 20,
            "TANGENT": 22,
            "TEXCOORD_0": 23
          },
          "indices": 24,
          "material": 1,
          "mode": 4
        }
      ]
    },
    {
      "name": "Object_5",
      "primitives": [
        {
          "attributes": {
            "NORMAL": 26,
            "POSITION": 25,
            "TANGENT": 27,
            "TEXCOORD_0": 28
          },
          "indices": 29,
          "material": 4,
          "mode": 4
        }
      ]
    },
    {
      "name": "Object_6",
      "primitives": [
        {
          "attributes": {
            "NORMAL": 31,
            "POSITION": 30,
            "TANGENT": 32,
            "TEXCOORD_0": 33
          },
          "indices": 34,
          "material": 5,
          "mode": 4
        }
      ]
    },
    {
      "name": "Object_7",
      "primitives": [
        {
          "attributes": {
            "NORMAL": 36,
            "POSITION": 35,
            "TANGENT": 37,
            "TEXCOORD_0": 38
          },
          "indices": 39,
          "material": 6,
          "mode": 4
        }
      ]
    },
    {
      "name": "Object_8",
      "primitives": [
        {
          "attributes": {
            "NORMAL": 41,
            "POSITION": 40,
            "TANGENT": 42,
            "TEXCOORD_0": 43
          },
          "indices": 44,
          "material": 7,
          "mode": 4
        }
      ]
    }
  ],
  "nodes": [
    {
      "children": [
        1
      ],
      "matrix": [
        0.005624481476843357,
        0.0,
        0.0,
        0.0,
        0.0,
        2.15337135796569e-18,
        -0.005624481476843357,
        0.0,
        0.0,
        0.005624481476843357,
        2.15337135796569e-18,
        0.0,
        0.0,
        -8.526512829121202e-14,
        -1.8932661725304283e-29,
        1.0
      ],
      "name": "Sketchfab_model"
    },
    {
      "children": [
        2,
        3,
        4,
        5,
        6,
        7,
        8,
        9,
        10
      ],
      "name": "scene_for_marmoset.obj.cleaner.materialmerger.gles"
    },
    {
      "mesh": 0,
      "name": "Object_2"
    },
    {
      "mesh": 1,
      "name": "Object_3"
    },
    {
      "mesh": 2,
      "name": "Object_4"
    },
    {
      "mesh": 3,
      "name": "Object_5"
    },
    {
      "mesh": 4,
      "name": "Object_6"
    },
    {
      "mesh": 5,
      "name": "Object_7"
    },
    {
      "mesh": 6,
      "name": "Object_8"
    },
    {
      "mesh": 7,
      "name": "Object_9"
    },
    {
      "mesh": 8,
      "name": "Object_10"
    }
  ],
  "samplers": [
    {
      "magFilter": 9729,
      "minFilter": 9987,
      "wrapS": 10497,
      "wrapT": 10497
    }
  ],
  "scene": 0,
  "scenes": [
    {
      "name": "Sketchfab_Scene",
      "nodes": [
        0
      ]
    }
  ],
  "textures": [
    {
      "sampler": 0,
      "source": 0
    },
    {
      "sampler": 0,
      "source": 1
    },
    {
      "sampler": 0,
      "source": 2
    },
    {
      "sampler": 0,
      "source": 3
    },
    {
      "sampler": 0,
      "source": 4
    },
    {
      "sampler": 0,
      "source": 5
    },
    {
      "sampler": 0,
      "source": 6
    },
    {
      "sampler": 0,
      "source": 7
    },
    {
      "sampler": 0,
      "source": 8
    },
    {
      "sampler": 0,
      "source": 9
    },
    {
      "sampler": 0,
      "source": 10
    },
    {
      "sampler": 0,
      "source": 11
    },
    {
      "sampler": 0,
      "source": 12
    },
    {
      "sampler": 0,
      "source": 13
    },
    {
      "sampler": 0,
      "source": 14
    },
    {
      "sampler": 0,
      "source": 15
    },
    {
      "sampler": 0,
      "source": 16
    }
  ]
}
